<svg width="1113" height="1178" viewBox="0 0 1113 1178" fill="none" xmlns="http://www.w3.org/2000/svg">
<path d="M813.628 705.855L293.895 836.134C252.179 846.582 218.35 825.402 218.35 788.822V530.45C218.35 493.87 252.179 455.721 293.895 445.273L813.628 314.994C855.344 304.534 889.173 325.714 889.173 362.307V620.678C889.173 657.259 855.344 695.395 813.628 705.855Z" fill="#85B0DC"/>
<path d="M809.583 687.453L286.583 818.547C262.19 824.66 242.416 812.286 242.416 790.896V516.309C242.416 494.931 262.19 472.627 286.583 466.514L809.583 335.42C833.976 329.307 853.75 341.694 853.75 363.072V637.659C853.75 659.049 833.976 681.34 809.583 687.453Z" fill="#ECE3DA"/>
<mask id="mask0_761_515" style="mask-type:luminance" maskUnits="userSpaceOnUse" x="0" y="0" width="1113" height="1178">
<path d="M1113 0H0V1178H1113V0Z" fill="black" fill-opacity="0.6"/>
</mask>
<g mask="url(#mask0_761_515)">
<mask id="mask1_761_515" style="mask-type:luminance" maskUnits="userSpaceOnUse" x="694" y="515" width="135" height="184">
<path d="M828.269 515.496H694.867V698.867H828.269V515.496Z" fill="white"/>
</mask>
<g mask="url(#mask1_761_515)">
<mask id="mask2_761_515" style="mask-type:luminance" maskUnits="userSpaceOnUse" x="694" y="516" width="132" height="183">
<path d="M694.986 516.434H825.275V698.767H694.986V516.434Z" fill="white"/>
</mask>
<g mask="url(#mask2_761_515)">
<path d="M811.006 671.572L709.25 697.087C701.687 698.977 695.547 695.136 695.547 688.492V558.645C695.547 552.013 701.687 545.085 709.25 543.195L811.006 517.681C818.583 515.791 824.723 519.632 824.723 526.276V656.11C824.723 662.754 818.583 669.683 811.006 671.572Z" fill="#85B0DC"/>
</g>
<path d="M781.821 623.977L705.938 643.181L705.924 650.22L781.821 631.004V623.977Z" fill="#ECE3DA"/>
<path d="M807.607 617.444V624.472L816.156 622.31L816.17 615.283L807.607 617.444Z" fill="#ECE3DA"/>
<path d="M757.654 660.719L705.911 674.316L705.896 681.343L757.654 667.746V660.719Z" fill="#ECE3DA"/>
<path d="M768.078 657.991V665.018L817.864 651.939L817.878 644.912L768.078 657.991Z" fill="#ECE3DA"/>
<path d="M714.91 656.953L705.911 659.324L705.896 666.351L714.91 663.98V656.953Z" fill="#ECE3DA"/>
<path d="M725.316 654.221V661.248L817.861 636.944L817.875 629.904L725.316 654.221Z" fill="#ECE3DA"/>
</g>
</g>
<mask id="mask3_761_515" style="mask-type:luminance" maskUnits="userSpaceOnUse" x="0" y="0" width="1113" height="1178">
<path d="M1113 0H0V1178H1113V0Z" fill="black" fill-opacity="0.6"/>
</mask>
<g mask="url(#mask3_761_515)">
<mask id="mask4_761_515" style="mask-type:luminance" maskUnits="userSpaceOnUse" x="539" y="414" width="138" height="323">
<path d="M676.831 414.332H539.824V736.812H676.831V414.332Z" fill="white"/>
</mask>
<g mask="url(#mask4_761_515)">
<mask id="mask5_761_515" style="mask-type:luminance" maskUnits="userSpaceOnUse" x="543" y="416" width="133" height="320">
<path d="M543.428 416.582H675.125V735.098H543.428V416.582Z" fill="white"/>
</mask>
<g mask="url(#mask5_761_515)">
<path d="M657.438 709.852L560.922 734.045C551.655 736.367 544.148 731.662 544.148 723.548V460.533C544.148 452.406 551.655 443.947 560.922 441.613L657.438 417.432C666.705 415.11 674.212 419.803 674.212 427.929V690.944C674.212 699.07 666.705 707.53 657.438 709.852Z" fill="#EC5E5C"/>
</g>
<path d="M659.057 578.522L555.316 604.173L555.33 597.145L659.071 571.482L659.057 578.522Z" fill="#ECE3DA"/>
<path d="M659.057 554.082L555.316 579.733L555.33 572.706L659.071 547.043L659.057 554.082Z" fill="#ECE3DA"/>
<path d="M595.44 612.15L555.287 622.08V629.119L595.44 619.19V612.15Z" fill="#ECE3DA"/>
<path d="M605.85 609.582V616.609L659.03 603.457V596.43L605.85 609.582Z" fill="#ECE3DA"/>
<path d="M643.605 627.304V634.331L658.985 630.528L658.999 623.488L643.605 627.304Z" fill="#ECE3DA"/>
<path d="M637.751 628.75L555.262 649.152L555.248 656.179L637.751 635.777V628.75Z" fill="#ECE3DA"/>
<path d="M594.777 667.491V674.53L658.957 658.648L658.971 651.621L594.777 667.491Z" fill="#ECE3DA"/>
<path d="M571.343 673.295L555.231 677.284L555.217 684.311L571.343 680.322V673.295Z" fill="#ECE3DA"/>
<path d="M612.355 686.521L555.231 700.65L555.217 707.689L612.355 693.549V686.521Z" fill="#ECE3DA"/>
<path d="M635.805 680.728V687.755L658.958 682.025L658.972 674.998L635.805 680.728Z" fill="#ECE3DA"/>
<path d="M659.1 500.866L555.359 526.529V519.489L659.1 493.826V500.866Z" fill="#ECE3DA"/>
<path d="M636.452 443.193L555.428 463.237V470.264L636.452 450.233V443.193Z" fill="#ECE3DA"/>
<path d="M641.664 441.905V448.932L659.17 444.61V437.57L641.664 441.905Z" fill="#ECE3DA"/>
<path d="M607.161 478.564L555.403 491.359L555.389 498.398L607.161 485.592V478.564Z" fill="#ECE3DA"/>
<path d="M617.568 475.98V483.02L659.13 472.732L659.144 465.705L617.568 475.98Z" fill="#ECE3DA"/>
<path d="M618.228 532.061L555.33 547.621V554.648L618.228 539.088V532.061Z" fill="#ECE3DA"/>
<path d="M641.664 526.269V533.296L659.058 528.998L659.072 521.959L641.664 526.269Z" fill="#ECE3DA"/>
</g>
</g>
<mask id="mask6_761_515" style="mask-type:luminance" maskUnits="userSpaceOnUse" x="0" y="0" width="1113" height="1178">
<path d="M1113 0H0V1178H1113V0Z" fill="black" fill-opacity="0.6"/>
</mask>
<g mask="url(#mask6_761_515)">
<mask id="mask7_761_515" style="mask-type:luminance" maskUnits="userSpaceOnUse" x="269" y="695" width="261" height="106">
<path d="M529.008 695.709H269.416V800.041H529.008V695.709Z" fill="white"/>
</mask>
<g mask="url(#mask7_761_515)">
<mask id="mask8_761_515" style="mask-type:luminance" maskUnits="userSpaceOnUse" x="273" y="695" width="255" height="104">
<path d="M273.033 695.74H527.611V798.639H273.033V695.74Z" fill="white"/>
</mask>
<g mask="url(#mask8_761_515)">
<path d="M527.148 734.261L273.189 797.925V760.443L527.148 696.779V734.261Z" fill="#EC5E5C"/>
</g>
<path d="M308.011 783.254L278.436 790.664V764.742L308.011 757.332V783.254Z" fill="#85B0DC"/>
<path d="M291.224 781.538L281.225 776.289L283.746 773.152L293.745 778.401L291.224 781.538Z" fill="#ECE3DA"/>
<path d="M288.363 780.045L302.264 762.768L305.123 764.274L291.222 781.539L288.363 780.045Z" fill="#ECE3DA"/>
<path d="M520.294 712.293L314.291 764.187L314.305 757.16L520.294 705.254V712.293Z" fill="#ECE3DA"/>
<path d="M520.294 727.285L314.291 779.191L314.305 772.152L520.294 720.258V727.285Z" fill="#ECE3DA"/>
</g>
</g>
<mask id="mask9_761_515" style="mask-type:luminance" maskUnits="userSpaceOnUse" x="0" y="0" width="1113" height="1178">
<path d="M1113 0H0V1178H1113V0Z" fill="black" fill-opacity="0.6"/>
</mask>
<g mask="url(#mask9_761_515)">
<mask id="mask10_761_515" style="mask-type:luminance" maskUnits="userSpaceOnUse" x="691" y="376" width="138" height="162">
<path d="M828.269 376.389H691.262V537.629H828.269V376.389Z" fill="white"/>
</mask>
<g mask="url(#mask10_761_515)">
<mask id="mask11_761_515" style="mask-type:luminance" maskUnits="userSpaceOnUse" x="693" y="377" width="134" height="161">
<path d="M693.244 377.986H826.11V537.621H693.244V377.986Z" fill="white"/>
</mask>
<g mask="url(#mask11_761_515)">
<path d="M807.847 512.365L711.063 536.62C701.754 538.954 694.205 534.224 694.205 526.061V422.445C694.205 414.282 701.754 405.773 711.063 403.439L807.847 379.184C817.156 376.85 824.705 381.58 824.705 389.743V493.346C824.705 501.509 817.156 510.031 807.847 512.365Z" fill="#85B0DC"/>
</g>
</g>
</g>
<mask id="mask12_761_515" style="mask-type:luminance" maskUnits="userSpaceOnUse" x="0" y="0" width="1113" height="1178">
<path d="M1113 0H0V1178H1113V0Z" fill="black" fill-opacity="0.6"/>
</mask>
<g mask="url(#mask12_761_515)">
<mask id="mask13_761_515" style="mask-type:luminance" maskUnits="userSpaceOnUse" x="698" y="382" width="124" height="150">
<path d="M821.046 382.699H698.461V531.293H821.046V382.699Z" fill="white"/>
</mask>
<g mask="url(#mask13_761_515)">
<mask id="mask14_761_515" style="mask-type:luminance" maskUnits="userSpaceOnUse" x="699" y="384" width="122" height="147">
<path d="M699.295 384.785H820.077V530.798H699.295V384.785Z" fill="white"/>
</mask>
<g mask="url(#mask14_761_515)">
<path d="M803.405 507.123L715.508 529.155C707.058 531.279 700.199 526.981 700.199 519.571V425.465C700.199 418.043 707.058 410.312 715.508 408.2L803.405 386.156C811.869 384.044 818.728 388.329 818.728 395.752V489.858C818.728 497.268 811.869 505.011 803.405 507.123Z" fill="#ECE3DA"/>
</g>
</g>
</g>
<mask id="mask15_761_515" style="mask-type:luminance" maskUnits="userSpaceOnUse" x="0" y="0" width="1113" height="1178">
<path d="M1113 0H0V1178H1113V0Z" fill="black" fill-opacity="0.6"/>
</mask>
<g mask="url(#mask15_761_515)">
<mask id="mask16_761_515" style="mask-type:luminance" maskUnits="userSpaceOnUse" x="781" y="411" width="33" height="89">
<path d="M813.832 411.164H781.383V499.688H813.832V411.164Z" fill="white"/>
</mask>
<g mask="url(#mask16_761_515)">
<mask id="mask17_761_515" style="mask-type:luminance" maskUnits="userSpaceOnUse" x="784" y="414" width="29" height="84">
<path d="M784.994 414.326H812.317V497.515H784.994V414.326Z" fill="white"/>
</mask>
<g mask="url(#mask17_761_515)">
<path d="M785.373 421.759V496.735L811.02 490.746L811.879 415.004L785.373 421.759Z" fill="#EC5E5C"/>
</g>
</g>
</g>
<mask id="mask18_761_515" style="mask-type:luminance" maskUnits="userSpaceOnUse" x="0" y="0" width="1113" height="1178">
<path d="M1113 0H0V1178H1113V0Z" fill="black" fill-opacity="0.6"/>
</mask>
<g mask="url(#mask18_761_515)">
<mask id="mask19_761_515" style="mask-type:luminance" maskUnits="userSpaceOnUse" x="748" y="439" width="34" height="68">
<path d="M781.39 439.613H748.941V506.006H781.39V439.613Z" fill="white"/>
</mask>
<g mask="url(#mask19_761_515)">
<mask id="mask20_761_515" style="mask-type:luminance" maskUnits="userSpaceOnUse" x="751" y="440" width="29" height="64">
<path d="M751.057 440.027H779.534V503.58H751.057V440.027Z" fill="white"/>
</mask>
<g mask="url(#mask20_761_515)">
<path d="M752.027 447.249V503.49L777.674 497.488L778.533 440.506L752.027 447.249Z" fill="#85B0DC"/>
</g>
</g>
</g>
<mask id="mask21_761_515" style="mask-type:luminance" maskUnits="userSpaceOnUse" x="0" y="0" width="1113" height="1178">
<path d="M1113 0H0V1178H1113V0Z" fill="black" fill-opacity="0.6"/>
</mask>
<g mask="url(#mask21_761_515)">
<mask id="mask22_761_515" style="mask-type:luminance" maskUnits="userSpaceOnUse" x="716" y="468" width="33" height="45">
<path d="M748.947 468.07H716.498V512.332H748.947V468.07Z" fill="white"/>
</mask>
<g mask="url(#mask22_761_515)">
<mask id="mask23_761_515" style="mask-type:luminance" maskUnits="userSpaceOnUse" x="720" y="469" width="28" height="43">
<path d="M720.102 469.525H747.607V511.885H720.102V469.525Z" fill="white"/>
</mask>
<g mask="url(#mask23_761_515)">
<path d="M720.402 476.493V511.74L746.049 505.738L746.908 469.75L720.402 476.493Z" fill="#EC5E5C"/>
</g>
</g>
</g>
<mask id="mask24_761_515" style="mask-type:luminance" maskUnits="userSpaceOnUse" x="0" y="0" width="1113" height="1178">
<path d="M1113 0H0V1178H1113V0Z" fill="black" fill-opacity="0.6"/>
</mask>
<g mask="url(#mask24_761_515)">
<mask id="mask25_761_515" style="mask-type:luminance" maskUnits="userSpaceOnUse" x="705" y="417" width="109" height="105">
<path d="M813.839 417.488H705.676V521.82H813.839V417.488Z" fill="white"/>
</mask>
<g mask="url(#mask25_761_515)">
<mask id="mask26_761_515" style="mask-type:luminance" maskUnits="userSpaceOnUse" x="708" y="419" width="9" height="100">
<path d="M708.789 419.605H716.493V518.664H708.789V419.605Z" fill="white"/>
</mask>
<g mask="url(#mask26_761_515)">
<path d="M709.266 421.766V518.491L716.11 516.243V420.26L709.266 421.766Z" fill="#85B0DC"/>
</g>
<mask id="mask27_761_515" style="mask-type:luminance" maskUnits="userSpaceOnUse" x="708" y="483" width="106" height="36">
<path d="M708.789 483.883H813.178V518.66H708.789V483.883Z" fill="white"/>
</mask>
<g mask="url(#mask27_761_515)">
<path d="M709.266 518.486L812.739 492.242V486.24L709.266 511.446V518.486Z" fill="#85B0DC"/>
</g>
</g>
</g>
<mask id="mask28_761_515" style="mask-type:luminance" maskUnits="userSpaceOnUse" x="0" y="0" width="1113" height="1178">
<path d="M1113 0H0V1178H1113V0Z" fill="black" fill-opacity="0.6"/>
</mask>
<g mask="url(#mask28_761_515)">
<mask id="mask29_761_515" style="mask-type:luminance" maskUnits="userSpaceOnUse" x="269" y="607" width="264" height="140">
<path d="M532.613 607.18H269.416V746.289H532.613V607.18Z" fill="white"/>
</mask>
<g mask="url(#mask29_761_515)">
<mask id="mask30_761_515" style="mask-type:luminance" maskUnits="userSpaceOnUse" x="273" y="610" width="257" height="135">
<path d="M273.033 610.342H529.02V744.918H273.033V610.342Z" fill="white"/>
</mask>
<g mask="url(#mask30_761_515)">
<path d="M510.522 687.97L290.112 743.211C280.845 745.533 273.338 740.828 273.338 732.714V687.859C273.338 679.733 280.845 671.261 290.112 668.939L510.522 613.698C519.79 611.376 527.296 616.082 527.296 624.196V669.05C527.296 677.177 519.79 685.649 510.522 687.97Z" fill="#85B0DC"/>
</g>
<path d="M503.547 683.489L439.663 699.506C430.157 701.89 422.453 697.061 422.453 688.725V656.195C422.453 647.872 430.157 639.177 439.663 636.806L503.547 620.788C513.054 618.405 520.758 623.234 520.758 631.557V664.087C520.758 672.423 513.054 681.105 503.547 683.489Z" fill="#ECE3DA"/>
<mask id="mask31_761_515" style="mask-type:luminance" maskUnits="userSpaceOnUse" x="410" y="608" width="121" height="104">
<path d="M410.033 608.732H530.196V711.508H410.033V608.732Z" fill="white"/>
</mask>
<g mask="url(#mask31_761_515)">
<path d="M503.549 683.485L439.665 699.503C430.159 701.886 422.455 697.057 422.455 688.721V656.192C422.455 647.868 430.159 639.173 439.665 636.802L503.549 620.785C513.056 618.401 520.76 623.23 520.76 631.554V664.083C520.76 672.419 513.056 681.101 503.549 683.485Z" stroke="#85B0DC" stroke-width="0.316223" stroke-miterlimit="10"/>
</g>
<mask id="mask32_761_515" style="mask-type:luminance" maskUnits="userSpaceOnUse" x="366" y="608" width="165" height="137">
<path d="M366.77 608.732H530.197V744.914H366.77V608.732Z" fill="white"/>
</mask>
<g mask="url(#mask32_761_515)">
<path d="M503.578 671.198L439.75 687.191V647.906L503.578 631.9V671.198Z" stroke="#85B0DC" stroke-width="1.89734" stroke-miterlimit="10"/>
</g>
<mask id="mask33_761_515" style="mask-type:luminance" maskUnits="userSpaceOnUse" x="366" y="608" width="165" height="123">
<path d="M366.77 608.732H530.197V730.477H366.77V608.732Z" fill="white"/>
</mask>
<g mask="url(#mask33_761_515)">
<path d="M439.75 647.906L472.889 664.356L503.578 631.9" stroke="#85B0DC" stroke-width="1.89734" stroke-miterlimit="10"/>
</g>
</g>
</g>
<mask id="mask34_761_515" style="mask-type:luminance" maskUnits="userSpaceOnUse" x="0" y="0" width="1113" height="1178">
<path d="M1113 0H0V1178H1113V0Z" fill="black" fill-opacity="0.6"/>
</mask>
<g mask="url(#mask34_761_515)">
<mask id="mask35_761_515" style="mask-type:luminance" maskUnits="userSpaceOnUse" x="363" y="363" width="368" height="121">
<path d="M730.907 363.738H363.152V483.878H730.907V363.738Z" fill="white"/>
</mask>
<g mask="url(#mask35_761_515)">
<mask id="mask36_761_515" style="mask-type:luminance" maskUnits="userSpaceOnUse" x="365" y="365" width="366" height="116">
<path d="M365.395 365.875H730.347V480.716H365.395V365.875Z" fill="white"/>
</mask>
<g mask="url(#mask36_761_515)">
<path d="M713.109 396.713L383.056 479.445C373.845 481.754 366.381 477.086 366.381 469.009C366.381 460.932 373.845 452.51 383.056 450.2L713.109 367.468C722.32 365.159 729.784 369.84 729.784 377.916C729.784 385.993 722.32 394.404 713.109 396.713Z" fill="#EC5E5C"/>
</g>
</g>
</g>
<mask id="mask37_761_515" style="mask-type:luminance" maskUnits="userSpaceOnUse" x="0" y="0" width="1113" height="1178">
<path d="M1113 0H0V1178H1113V0Z" fill="black" fill-opacity="0.6"/>
</mask>
<g mask="url(#mask37_761_515)">
<mask id="mask38_761_515" style="mask-type:luminance" maskUnits="userSpaceOnUse" x="283" y="657" width="135" height="74">
<path d="M417.239 657.766H283.838V730.482H417.239V657.766Z" fill="white"/>
</mask>
<g mask="url(#mask38_761_515)">
<mask id="mask39_761_515" style="mask-type:luminance" maskUnits="userSpaceOnUse" x="286" y="670" width="85" height="29">
<path d="M286.029 670.408H370.377V698.862H286.029V670.408Z" fill="white"/>
</mask>
<g mask="url(#mask39_761_515)">
<path d="M367.952 670.889L286.942 691.167L286.928 698.207L367.952 677.916V670.889Z" fill="#ECE3DA"/>
</g>
<mask id="mask40_761_515" style="mask-type:luminance" maskUnits="userSpaceOnUse" x="392" y="659" width="22" height="15">
<path d="M392.008 659.424H413.64V673.577H392.008V659.424Z" fill="white"/>
</mask>
<g mask="url(#mask40_761_515)">
<path d="M393.754 664.437V671.476L413.401 666.549L413.415 659.521L393.754 664.437Z" fill="#ECE3DA"/>
</g>
<mask id="mask41_761_515" style="mask-type:luminance" maskUnits="userSpaceOnUse" x="286" y="705" width="56" height="23">
<path d="M286.029 705.191H341.533V727.322H286.029V705.191Z" fill="white"/>
</mask>
<g mask="url(#mask41_761_515)">
<path d="M338.654 706.23L286.896 719.309V726.336L338.654 713.258V706.23Z" fill="#ECE3DA"/>
</g>
<mask id="mask42_761_515" style="mask-type:luminance" maskUnits="userSpaceOnUse" x="348" y="686" width="69" height="26">
<path d="M348.734 686.223H416.294V711.515H348.734V686.223Z" fill="white"/>
</mask>
<g mask="url(#mask42_761_515)">
<path d="M349.078 703.587V710.626L415.117 693.929V686.902L349.078 703.587Z" fill="#ECE3DA"/>
</g>
</g>
</g>
<mask id="mask43_761_515" style="mask-type:luminance" maskUnits="userSpaceOnUse" x="0" y="0" width="1113" height="1178">
<path d="M1113 0H0V1178H1113V0Z" fill="black" fill-opacity="0.6"/>
</mask>
<g mask="url(#mask43_761_515)">
<mask id="mask44_761_515" style="mask-type:luminance" maskUnits="userSpaceOnUse" x="705" y="524" width="113" height="93">
<path d="M817.444 524.977H705.676V616.662H817.444V524.977Z" fill="white"/>
</mask>
<g mask="url(#mask44_761_515)">
<mask id="mask45_761_515" style="mask-type:luminance" maskUnits="userSpaceOnUse" x="707" y="528" width="107" height="88">
<path d="M707.924 528.131H813.848V615.531H707.924V528.131Z" fill="white"/>
</mask>
<g mask="url(#mask45_761_515)">
<path d="M801.864 593.785L721.093 614.027C714.488 615.682 709.15 612.335 709.15 606.543V562.626C709.15 556.847 714.488 550.808 721.093 549.165L801.864 528.911C808.455 527.256 813.807 530.603 813.807 536.395V580.311C813.807 586.091 808.455 592.13 801.864 593.785Z" fill="#ECE3DA"/>
</g>
<path d="M787.492 569.768C785.985 584.847 774.676 597.073 762.24 597.073C749.804 597.073 740.945 584.847 742.452 569.768C743.959 554.701 755.268 542.475 767.704 542.475C780.154 542.475 789.013 554.701 787.492 569.768Z" fill="#85B0DC"/>
<path d="M743.479 555.973C743.479 555.973 746.901 564.223 752.886 562.716C758.872 561.222 756.309 552.219 758.013 552.219C759.717 552.219 763.139 551.465 762.294 549.218C761.435 546.97 759.506 545.08 757.478 545.278C755.45 545.475 743.479 555.973 743.479 555.973Z" fill="#ECE3DA"/>
<path d="M771.692 570.964C771.692 570.964 766.566 574.718 768.284 577.707C769.988 580.708 772.551 584.463 771.692 585.957C770.847 587.464 777.509 591.687 780.156 587.698C782.818 583.709 781.959 577.707 785.382 574.718C788.804 571.717 780.255 561.22 771.692 570.964Z" fill="#ECE3DA"/>
<path d="M776.831 546.968C776.831 546.968 774.267 551.463 776.831 552.217C779.394 552.97 778.535 554.464 780.253 552.97C781.957 551.463 780.253 546.215 776.831 546.968Z" fill="#ECE3DA"/>
</g>
</g>
<mask id="mask46_761_515" style="mask-type:luminance" maskUnits="userSpaceOnUse" x="0" y="0" width="1113" height="1178">
<path d="M1113 0H0V1178H1113V0Z" fill="black" fill-opacity="0.6"/>
</mask>
<g mask="url(#mask46_761_515)">
<mask id="mask47_761_515" style="mask-type:luminance" maskUnits="userSpaceOnUse" x="269" y="455" width="261" height="203">
<path d="M529.008 455.432H269.416V657.772H529.008V455.432Z" fill="white"/>
</mask>
<g mask="url(#mask47_761_515)">
<mask id="mask48_761_515" style="mask-type:luminance" maskUnits="userSpaceOnUse" x="273" y="458" width="256" height="199">
<path d="M273.033 458.592H528.47V656.4H273.033V458.592Z" fill="white"/>
</mask>
<g mask="url(#mask48_761_515)">
<path d="M510.522 599.491L290.112 654.745C280.845 657.066 273.338 652.361 273.338 644.235V533.407C273.338 525.281 280.845 516.809 290.112 514.487L510.522 459.246C519.79 456.924 527.296 461.617 527.296 469.743V580.584C527.296 588.71 519.79 597.169 510.522 599.491Z" fill="#85B0DC"/>
</g>
<path d="M505.336 595.143L298.981 647.296C290.489 649.421 283.602 645.111 283.602 637.664V536.036C283.602 528.59 290.489 520.834 298.981 518.697L505.336 466.544C513.829 464.42 520.716 468.73 520.716 476.177V577.804C520.716 585.251 513.829 593.006 505.336 595.143Z" fill="#ECE3DA"/>
<path d="M305.67 523.921V636.206L498.561 587.967V584.015L311.078 630.673V522.34L305.67 523.921Z" fill="#85B0DC"/>
<path d="M320.01 620.397L355.177 564.242L383.133 584.014L404.78 526.291L439.947 563.452L453.468 535.776L486.945 546.224" stroke="#EC5E5C" stroke-width="1.89734" stroke-linecap="round" stroke-linejoin="round"/>
</g>
</g>
<path d="M815.359 548.554C815.359 548.554 821.289 562.633 817.613 570.759C814.599 577.465 804.67 605.993 801.473 607.364C801.473 607.364 838.203 605.66 843.146 606.265C843.146 606.265 849.949 533.191 815.359 548.554Z" fill="black"/>
<path d="M758.125 674.005C758.125 674.005 769.251 648.293 795.7 644.872C822.15 641.451 840.107 639.203 840.107 639.203C840.107 639.203 760.576 705.188 758.125 674.005Z" fill="#E4BEA0"/>
<path d="M831.671 599.916L757.168 642.14L759.9 659.517L834.178 628.284L831.671 599.916Z" fill="#E4BEA0"/>
<path d="M773.459 642.946L763.558 590.385L753.756 593.373C753.756 593.373 742.517 648.874 754.601 656.889C766.685 664.904 773.459 642.946 773.459 642.946Z" fill="#E4BEA0"/>
<path d="M751.774 605.092L751.422 594.731L749.957 580.096L751.112 571.686L764.463 570.797C764.463 570.797 765.238 579.257 764.844 582.011C764.421 585.036 762.773 592.619 762.773 592.619L757.928 613.009C757.928 613.009 751.872 613.725 751.774 605.092Z" fill="#E4BEA0"/>
<path d="M751.897 585.814L745.433 577.132L742.25 568.709C742.25 568.709 749.067 569.635 749.165 574.489L752.756 576.749L751.897 585.814Z" fill="#E4BEA0"/>
<path d="M750.136 576.502L751.826 565.646L750.417 558.681C750.417 558.681 748.108 555.112 749.389 555.038C751.051 554.939 752.614 557.829 752.614 557.829L755.488 564.349L754.544 576.465L750.136 576.502Z" fill="#E4BEA0"/>
<path d="M754.251 564.188C754.251 564.188 755.73 564.212 757.561 564.632C758.462 564.842 758.828 565.793 759.758 566.238C761.659 567.139 763.941 567.954 764.265 570.362C765.067 576.364 763.631 583.157 763.631 583.157C763.631 583.157 742.322 590.703 754.251 564.188Z" fill="#E4BEA0"/>
<path d="M754.053 565.596L749.039 569.745C749.039 569.745 749.602 570.671 750.419 570.894C751.236 571.116 757.644 568.127 757.644 568.127L754.053 565.596Z" fill="#E4BEA0"/>
<path d="M750.886 589.347C750.886 589.347 748.337 592.286 748.393 594.657C748.464 597.028 763.167 595.633 763.167 595.633C763.167 595.633 765.97 593.348 763.055 591.273C760.139 589.186 750.886 589.347 750.886 589.347Z" fill="#EC5E5C"/>
<path d="M799.047 1029.11H785.372L778.527 873.9H811.019L799.047 1029.11Z" fill="#E4BEA0"/>
<path d="M794.137 1037.36C798.672 1037.25 800.756 1033.03 800.756 1033.03C800.756 1033.03 801.446 1028.16 800.869 1025.79C800.305 1023.42 798.996 1024.05 798.996 1024.05L786.264 1023.96C786.264 1023.96 771.631 1027.06 767.138 1031.52C764.997 1033.66 766.011 1037.12 766.011 1037.12L794.137 1037.36Z" fill="#EC5E5C"/>
<path d="M854.641 1021.61H840.952L834.121 866.404H866.612L854.641 1021.61Z" fill="#E4BEA0"/>
<path d="M849.723 1029.87C854.258 1029.74 856.343 1025.52 856.343 1025.52C856.343 1025.52 857.019 1020.67 856.455 1018.29C855.892 1015.92 854.568 1016.55 854.568 1016.55L841.851 1016.47C841.851 1016.47 827.203 1019.57 822.725 1024.02C820.57 1026.16 821.584 1029.62 821.584 1029.62L849.723 1029.87Z" fill="#EC5E5C"/>
<path d="M771.684 754.672C771.684 754.672 748.094 892.781 752.024 898.635C769.121 924.137 878.087 922.581 890.551 897.894C890.551 897.894 878.397 779.606 876.017 753.178L771.684 754.672Z" fill="#85B0DC"/>
<path d="M837.529 569.475C837.529 569.475 838.388 589.717 850.36 595.818C864.387 602.981 794.518 637.042 794.518 637.042C794.518 637.042 802.982 629.224 811.024 621.209C823.544 608.748 817.826 606.056 817.629 605.982C817.432 605.908 824.164 596.336 822.488 588.926C820.953 582.208 821.939 588.877 817.122 578.664C810.756 565.227 837.529 569.475 837.529 569.475Z" fill="#E4BEA0"/>
<path d="M850.551 595.965C850.551 595.965 843.044 599.62 829.833 603.955C822.989 606.215 818.172 603.56 818.172 603.56C818.172 603.56 811.201 606.326 805.187 615.885C788.23 642.796 785.991 688.218 785.991 688.218C782.934 709.744 763.907 753.957 772.541 758.427C772.541 758.427 874.296 778.669 876.014 751.672C877.028 735.543 868.282 726.046 865.86 688.688C864.888 673.695 865.747 654.194 866.564 632.693C867.338 612.156 850.551 595.965 850.551 595.965Z" fill="#EC5E5C"/>
<path d="M813.585 559.547C809.275 571.23 806.219 584.828 810.529 586.05C823.866 589.842 853.724 583.852 858.047 572.157C862.357 560.474 858.864 549.013 845.541 545.222C832.204 541.442 817.895 547.852 813.585 559.547Z" fill="#E4BEA0"/>
<path d="M813.585 559.547C809.275 571.23 806.219 584.828 810.529 586.05C823.866 589.842 853.724 583.852 858.047 572.157C862.357 560.474 858.864 549.013 845.541 545.222C832.204 541.442 817.895 547.852 813.585 559.547Z" fill="#E4BEA0"/>
<path d="M813.501 562.844C813.501 562.844 809.642 567.858 805.713 569.204L810.206 574.243L813.501 562.844Z" fill="#E4BEA0"/>
<path d="M816.163 619.704C816.163 619.704 776.996 650.591 764.856 661.694C761.757 664.522 754.589 672.191 759.715 676.699C764.447 680.836 772.278 678.947 775.968 677.44C792.657 670.66 820.05 654.062 835.824 639.958C840.218 636.018 847.795 626.003 837.528 617.988C827.275 609.96 816.163 619.704 816.163 619.704Z" fill="#E4BEA0"/>
<path d="M858.5 551.791C858.5 551.791 855.289 539.058 832.051 539.96C832.051 539.96 810.038 542.701 812.164 556.348C812.164 556.348 830.896 560.732 841.473 555.335C852.064 549.938 858.5 551.791 858.5 551.791Z" fill="black"/>
<path d="M824.037 546.441C824.037 546.441 809.544 559.445 817.98 569.856C817.98 569.856 813.544 586.825 813.446 587.368C811.474 597.804 807.094 600.682 807.094 600.682C807.094 600.682 824.022 614.476 834.726 614.723C846.134 614.995 855.148 605.436 855.148 605.436C855.148 605.436 854.725 592.136 856.063 578.526C857.331 565.497 865.668 552.048 853.443 544.774C834.543 533.523 824.037 546.441 824.037 546.441Z" fill="black"/>
<path d="M832.233 555.123L822.473 546.701L824.275 545.107L834.021 553.518L832.233 555.123Z" fill="#85B0DC"/>
</svg>
