<svg width="1826" height="2062" viewBox="0 0 1826 2062" fill="none" xmlns="http://www.w3.org/2000/svg">
<mask id="mask0_758_65" style="mask-type:luminance" maskUnits="userSpaceOnUse" x="0" y="0" width="1681" height="1510">
<path d="M0 0H1680.49V1509.73H0V0Z" fill="white"/>
</mask>
<g mask="url(#mask0_758_65)">
<path d="M1677.32 321.778C1666.8 282.003 1641.17 248.427 1628.67 210.524C1610.26 169.501 1577.39 116.037 1525.44 107.342C1466.92 101.746 1412.36 133.449 1374.23 170.728C1351.87 190.012 1363.05 165.756 1371.59 152.713C1388.02 129.102 1414.34 114.186 1442.61 102.994C1464.96 97.3978 1492.57 93.0501 1514.93 91.8018C1526.1 60.098 1470.88 37.7353 1446.55 29.0184C1381.47 3.53489 1309.79 62.5947 1281.51 118.534C1289.41 83.1064 1320.3 49.5301 1359.09 37.1112C1371.59 32.7635 1370.29 30.8909 1367.65 19.6989C1353.2 12.8545 1336.74 9.13094 1320.3 11.6276C1282.17 19.0747 1242.07 33.9903 1219.05 65.0699C1210.52 79.9855 1203.28 98.022 1206.55 116.037C1215.11 154.585 1200.64 132.201 1178.28 128.477C1171.07 124.732 1163.83 122.881 1155.27 122.881C1147.39 120.385 1139.49 120.385 1130.96 119.158C1105.3 114.789 1077.03 121.633 1052.72 130.953C1012.61 145.868 971.184 170.728 947.51 205.552C944.893 208.652 950.151 212.999 949.491 216.12C950.151 222.943 954.089 234.759 963.285 233.511C994.858 207.403 1036.26 188.14 1078.35 180.069C1104.64 173.848 1130.3 180.069 1155.93 185.665C1149.37 186.267 1141.48 183.792 1135.56 188.14C1084.93 190.637 1038.24 208.652 996.178 236.008C943.572 260.867 931.075 308.713 945.553 359.056C946.85 372.121 963.945 418.116 979.083 420.591C986.299 418.116 981.041 410.023 983.681 405.675C985.001 399.477 986.299 393.256 987.619 387.036C1006.69 327.998 1059.28 280.13 1117.14 257.122C1131.62 247.802 1226.95 248.427 1198.02 267.087C1126.36 278.882 1051.4 316.806 1028.39 383.937C1009.97 454.167 1055.34 511.957 1119.78 546.158C1131.62 551.754 1215.77 625.084 1214.45 595.876C1211.18 560.449 1218.39 523.774 1224.31 488.346C1230.23 454.791 1249.3 424.96 1274.94 401.952C1297.29 382.064 1344.64 367.149 1324.26 413.768C1316.36 434.904 1298.61 454.167 1286.11 473.431C1266.4 502.014 1252.58 533.717 1245.37 566.669C1234.19 635.027 1239.45 657.411 1318.34 661.759C1336.1 667.979 1355.15 667.355 1372.91 669.228C1401.18 674.802 1431.43 679.796 1459.7 674.802C1480.74 675.426 1493.23 659.284 1506.39 645.595C1534.66 621.36 1566.87 595.876 1577.39 561.698C1612.9 487.722 1549.78 430.535 1482.06 395.732C1472.84 386.412 1460.36 380.816 1448.53 374.596C1474.82 377.717 1496.51 388.909 1518.87 398.853C1543.86 415.619 1569.49 432.407 1585.93 458.515C1595.8 475.303 1603.02 497.666 1618.16 468.459C1635.25 451.671 1649.05 429.932 1661.54 410.023C1689.16 354.084 1617.5 314.933 1568.83 302.514C1547.8 288.826 1455.11 305.614 1457.72 288.826C1615.52 203.055 1686.54 398.853 1677.32 321.778ZM872.551 1248.5C762.105 1257.82 915.301 1211.83 827.184 1098.7C762.765 1021.03 686.485 945.802 581.297 922.191C574.058 918.467 566.82 921.566 568.14 930.262C564.202 983.101 493.841 1005.49 451.115 1026.6C424.8 1044.64 446.516 947.05 425.46 929.035C378.136 922.191 432.699 997.393 407.705 1035.32C393.911 1065.15 349.204 1062.65 320.272 1067.62C293.32 1067.02 310.416 1031.57 303.177 1016.05C282.144 1019.15 299.876 1071.99 250.571 1090.63C237.414 1125.43 207.185 1172.05 271.604 1135.38C326.851 1122.34 424.8 1101.2 460.311 1152.79C473.468 1187.59 403.767 1169.56 384.692 1168.33C339.985 1167.71 290.68 1159.61 249.911 1175.78C219.022 1183.87 202.587 1234.84 199.286 1261.55C202.587 1270.26 199.286 1382.14 215.061 1353.54C219.682 1341.74 226.237 1330.55 235.457 1321.23C270.967 1288.9 315.014 1269.64 359.06 1250.38C376.156 1240.41 456.373 1225.5 428.761 1264.04C410.346 1282.06 380.754 1285.18 357.74 1296.35C285.422 1320.61 255.83 1361.63 238.734 1426.27C232.816 1442.43 232.156 1464.79 252.552 1472.26C265.049 1481.58 280.823 1485.93 295.278 1489.67C317.631 1494.02 378.136 1513.28 396.529 1502.72C408.365 1485.3 416.924 1463.57 424.8 1443.68C430.059 1422.54 438.618 1397.06 445.196 1375.3C453.732 1353.54 462.951 1321.23 486.602 1309.42C530.672 1297.6 525.413 1346.72 522.113 1373.43C518.175 1389.59 512.256 1404.51 503.697 1419.42C476.086 1454.22 455.713 1488.42 521.453 1462.94C541.188 1456.72 559.604 1444.28 579.317 1435.58C596.412 1428.74 618.105 1419.42 620.085 1399.53C625.344 1374.05 624.683 1344.84 611.526 1321.83C599.052 1296.98 586.555 1271.49 573.398 1247.26C574.058 1227.99 604.971 1244.78 614.167 1250.98C643.759 1272.74 654.936 1308.79 658.874 1344.84C663.472 1359.76 647.037 1405.75 675.969 1379.02C725.274 1346.72 777.219 1329.93 768.683 1264.04C771.301 1246.01 803.534 1262.17 816.008 1258.45C827.184 1255.35 914.64 1257.2 872.551 1248.5ZM219.682 424.96C278.843 434.904 322.89 388.909 362.338 354.084C380.754 343.538 394.571 327.998 412.963 319.905C428.761 314.309 462.951 300.642 467.55 326.125C470.827 365.276 413.624 401.328 380.754 421.215C345.903 433.656 309.095 438.003 271.604 446.075C253.872 450.444 210.463 449.195 237.414 476.53C259.79 510.73 300.536 528.745 336.047 547.406C402.447 588.408 316.334 497.042 295.278 488.97C288.7 483.374 272.925 482.126 272.925 471.558C298.579 456.018 339.325 463.487 369.577 457.891C634.54 429.932 543.806 675.426 697.662 486.474C706.881 458.515 745.67 422.464 712.8 401.328C638.501 320.529 536.59 268.314 432.699 228.539C353.802 203.055 270.307 188.764 191.41 162.032C134.866 146.492 83.5808 114.789 30.9752 89.9292C27.0372 85.5816 23.7365 91.1776 28.9948 93.6743C48.0703 114.789 36.2335 144.641 40.8316 170.125C42.812 198.708 40.8316 227.915 53.3286 252.15C62.5249 272.662 89.4992 282.605 111.193 286.35C161.818 301.89 207.185 267.087 245.313 240.979C305.157 214.248 272.265 280.13 231.518 291.322C217.701 295.046 201.266 301.266 186.789 304.365C179.573 308.089 169.056 304.365 162.478 310.586C158.517 311.834 152.599 312.458 148.001 313.685C138.804 313.685 130.905 316.806 122.369 319.905C111.853 323.629 95.4177 321.778 89.4992 331.722C93.4373 360.304 130.245 378.341 153.919 395.732C170.354 412.52 195.348 421.839 219.682 424.96ZM28.9948 84.3332C275.565 204.928 547.107 174.473 749.608 393.881C872.551 348.51 898.205 185.041 779.86 122.881C764.722 111.689 654.936 63.2189 701.623 116.661C722.656 146.492 731.852 186.892 723.316 222.319C716.738 245.951 695.044 263.342 674.649 277.634C652.295 287.599 647.037 253.398 641.779 240.355C631.922 194.984 652.955 144.641 639.798 101.121C617.445 45.1824 522.113 35.8628 469.53 15.9753C411.666 1.68389 523.433 108.59 498.439 153.337C478.066 180.671 447.814 140.896 445.196 119.158C437.297 83.1064 434.68 33.9903 395.231 14.1028C368.917 -0.188634 334.727 6.65576 304.497 6.65576C283.441 10.3793 256.49 3.53489 238.734 12.8545C240.715 40.8347 293.958 44.5582 304.497 71.2901C314.354 95.5253 295.938 135.3 265.049 109.817C254.509 88.7024 256.49 63.2189 240.715 44.5582C222.299 14.1028 178.913 18.4505 149.981 29.0184C130.245 34.6145 107.232 37.1112 86.8587 44.5582C71.744 47.6791 55.309 56.3745 40.1715 61.9705C27.0372 66.9424 12.5598 57.6228 0.722973 61.9705C0.062837 73.7653 17.8181 81.2339 28.9948 84.3332Z" fill="#6C8043"/>
</g>
<mask id="mask1_758_65" style="mask-type:luminance" maskUnits="userSpaceOnUse" x="60" y="451" width="1766" height="905">
<path d="M60.4863 451.814H1826V1355.45H60.4863V451.814Z" fill="white"/>
</mask>
<g mask="url(#mask1_758_65)">
<path d="M1787.13 1344.83C1786.47 1344.83 1786.47 1344.83 1787.13 1344.83ZM1821.32 1157.13C1809.49 1088.13 1769.38 1071.36 1707.58 1052.07C1681.95 1039.66 1653.01 1019.77 1693.76 1001.73C1736.51 991.788 1783.2 1018.52 1806.21 1052.07C1825.92 1065.14 1817.39 1033.44 1813.43 1024.74C1810.81 1011.05 1814.75 997.384 1812.13 984.341C1821.32 868.115 1760.84 861.895 1659.57 891.102C1614.2 908.514 1515.59 897.946 1598.43 850.079C1623.42 825.219 1804.23 896.074 1764.78 855.675C1742.43 817.751 1733.87 745.669 1671.41 753.741C1660.23 756.237 1658.93 743.797 1651.03 739.449C1631.3 725.76 1610.26 713.966 1586.59 707.745C1543.86 699.05 1493.24 700.901 1453.13 716.441C1415.66 728.881 1378.17 750.641 1358.46 785.444C1352.54 792.891 1347.92 800.36 1343.98 808.431C1334.79 817.751 1342.02 824.595 1353.84 827.092C1607.65 905.393 1628.02 1246 1738.49 1313.75C1608.31 1220.52 1608.31 1039.66 1494.56 934.601C1426.84 864.994 1294.68 795.388 1202.62 858.15C1169.09 877.435 1137.54 900.422 1122.41 934.601C1098.09 983.092 1112.55 1039.03 1136.22 1083.78C1148.72 1099.94 1169.09 1158.38 1194.75 1147.19C1197.36 1137.24 1199.34 1127.92 1202.62 1117.96C1265.74 922.806 1482.72 895.45 1333.47 988.688C1250.63 1048.98 1177.65 1156.51 1275.6 1233.58C1288.76 1242.28 1386.07 1324.32 1345.96 1262.79C1323.61 1216.79 1330.19 1169.55 1349.9 1124.8C1368.98 1077.56 1398.57 1032.19 1447.21 1006.08C1477.46 998.632 1469.57 1044 1463.65 1057.67C1451.81 1082.53 1439.31 1106.79 1429.46 1132.27C1418.28 1158.38 1410.38 1185.71 1405.12 1214.32C1395.27 1244.15 1415.66 1283.3 1447.87 1294.49C1522.17 1317.48 1610.26 1288.27 1686.54 1311.88C1707.58 1318.1 1727.31 1329.92 1747.03 1338.61C1756.22 1342.34 1778.58 1356.03 1786.47 1352.91C1791.73 1354.78 1783.2 1329.92 1783.2 1327.42C1780.56 1306.31 1795.03 1288.27 1803.57 1269.63C1823.31 1237.93 1818.68 1195.66 1821.32 1157.13ZM681.233 777.976C683.873 823.971 665.458 880.534 625.349 909.117C612.192 920.309 599.718 820.872 583.92 805.956C581.963 796.636 542.514 741.924 541.854 770.529C543.812 839.511 613.512 933.998 537.893 983.717C410.351 1055.82 446.522 1057.67 429.427 944.566C426.126 931.501 357.746 772.38 374.841 848.206C391.276 901.046 454.398 1021.62 389.318 1057.67C284.767 1086.9 307.781 1068.24 299.882 1016.04C286.087 1091.25 253.877 1102.44 178.918 1092.47C148.006 1085.65 115.136 1082.53 87.5243 1065.76C82.2661 1060.79 71.0894 1066.39 65.1709 1060.17C62.5304 1048.98 92.7826 1031.56 95.4232 1018.52C103.959 999.881 107.237 979.993 115.796 961.332C125.653 901.67 119.074 837.036 103.299 781.721C92.1225 754.365 167.742 763.684 184.177 764.309C209.808 768.656 234.142 778.6 259.136 787.295C268.332 791.04 278.188 796.012 287.408 800.36C319.617 804.708 292.006 782.324 281.489 773.004C213.769 708.994 76.3476 760.585 127.633 722.037C181.536 679.787 165.101 641.239 182.196 587.796C193.373 560.44 215.726 538.68 230.864 513.197C238.08 505.125 275.571 531.233 285.427 536.205C303.182 546.149 321.598 552.369 338.033 564.788C357.086 574.732 387.998 612.031 364.984 564.164C336.713 493.933 203.252 465.35 312.379 459.13C381.419 454.158 456.378 441.718 518.84 479.018C583.92 510.097 642.444 584.675 579.982 644.962C553.691 651.182 526.716 657.403 501.745 669.219C344.611 734.477 274.25 888.627 161.823 1000.5C136.169 1025.36 102.639 1045.25 71.0894 1057.67C102.639 1057.67 134.212 1032.19 160.503 1014.8C248.619 948.914 292.666 845.107 377.481 775.501C466.235 687.234 654.941 589.023 681.233 777.976ZM300.542 1005.48C300.542 1003.6 298.584 1004.85 299.882 1004.23C300.542 1004.85 300.542 1005.48 300.542 1005.48Z" fill="#A6BB70"/>
</g>
<path d="M1274.94 1990.62C1246.01 1998.72 1203.94 1993.75 1172.37 1992.5C1172.37 1950.85 1173.03 1904.85 1172.37 1861.96C1172.37 1856.38 1171.07 1853.26 1165.16 1854.51C1109.91 1855.14 1053.37 1852.64 998.142 1855.76C986.305 1906.1 1019.18 2035.37 983.688 2059.63C963.292 2054.66 882.437 2073.3 887.695 2045.94C879.137 1993.75 904.791 1890.56 877.816 1854.51C706.228 1866.93 706.888 1799.2 714.104 1985.03C709.506 2006.16 642.445 1988.77 620.752 1994.35C592.48 1839.6 618.112 1641.95 612.193 1474.73C643.105 1478.48 688.472 1466.66 713.444 1478.48C713.444 1549.33 713.444 1620.81 713.444 1691.67C716.084 1716.53 708.185 1746.36 716.744 1768.74C769.35 1792.35 826.531 1807.27 884.395 1810.39C905.451 1783.66 866.002 1530.07 902.15 1536.89C919.245 1541.24 1003.4 1525.7 997.482 1546.84C997.482 1632.61 997.482 1719.02 997.482 1804.79C1048.77 1814.74 1115.83 1788.63 1168.43 1772.46C1183.55 1679.23 1161.19 1566.12 1176.33 1473.51C1197.37 1478.48 1277.58 1460.44 1273.64 1485.3C1274.94 1654.37 1273.64 1822.18 1274.94 1990.62ZM764.092 1293.25C800.239 1330.55 893.614 1321.23 946.197 1329.3C1021.82 1331.8 1097.44 1315.01 1163.18 1278.96C1172.37 1273.36 1215.78 1252.23 1193.43 1252.85C1131.63 1259.07 1048.77 1241.03 996.822 1259.07C1004.72 1311.29 973.831 1287.03 937 1294.5C924.503 1293.25 898.872 1300.72 891.633 1290.15C890.313 1276.46 896.892 1247.88 874.538 1252.85C839.028 1252.85 808.138 1254.72 773.288 1252.85C754.873 1249.75 771.308 1283.31 764.092 1293.25Z" fill="#5D3524"/>
<path d="M1764.78 1334.89C1601.07 1242.28 1611.58 1024.74 1468.24 914.714C1345.96 797.24 1109.27 817.752 1025.75 958.234C992.221 1027.22 989.603 1108.64 991.561 1188.21C996.182 1208.1 986.303 1234.83 998.14 1251.6C1063.24 1252.22 1128.98 1251.6 1194.08 1251.6C1249.97 1266.51 971.188 1240.4 998.8 1269.63C998.14 1296.34 998.14 1296.34 969.868 1296.34C948.174 1296.34 926.481 1299.46 904.128 1298.22C876.516 1300.71 890.311 1266.51 883.732 1250.37C871.895 1234.21 859.421 1217.42 851.522 1199.4C846.264 1188.21 855.46 1175.77 850.202 1164.58C855.46 1145.31 882.434 1189.44 891.631 1196.28C890.311 1176.39 889.65 1157.13 886.373 1137.87C812.734 564.165 529.355 526.887 194.031 988.69C161.822 1019.15 113.814 1060.79 68.4471 1058.92C166.42 1014.17 232.16 918.459 293.962 833.916C564.206 491.438 855.46 664.851 904.128 991.165C890.971 761.21 851.522 505.127 652.959 348.502C476.09 201.175 224.944 208.019 30.979 91.7939C15.8643 81.226 34.917 83.0985 42.8158 89.2972C127.631 127.221 215.065 153.329 305.798 174.465C535.934 211.14 755.53 334.813 847.584 538.057C861.379 562.917 871.258 589.648 880.454 614.508C890.311 638.14 898.869 659.276 904.788 683.511C925.821 748.77 933.72 818.376 935.017 889.855C936.338 910.366 941.596 930.254 944.897 950.766C948.835 922.183 951.452 894.203 952.112 864.995C958.031 803.46 963.289 738.826 971.188 677.291C978.427 617.004 997.479 562.314 1019.83 508.85C1023.13 500.155 1025.75 490.835 1030.37 482.118C1031.67 479.643 1031.67 472.174 1036.27 470.323C1044.83 464.727 1061.92 498.282 1052.07 506.375C1041.55 544.902 1029.71 586.549 1021.81 626.948C1011.3 710.243 1006.04 795.389 997.479 879.287C986.303 972.526 1008 899.174 1046.15 873.691C1081 842.009 1129.64 823.972 1177.65 816.525C1243.39 800.361 1316.37 806.581 1378.17 833.292C1623.42 935.85 1585.93 1188.21 1764.78 1334.89ZM945.534 952.638C945.534 953.262 945.534 954.511 945.534 955.113C945.534 954.511 945.534 953.887 945.534 952.638ZM945.534 967.554C945.534 964.454 945.534 961.334 945.534 957.61C945.534 961.334 945.534 965.079 945.534 967.554ZM1225.63 191.231C1262.47 245.943 1324.27 280.747 1362.4 335.437C1397.25 399.469 1426.84 470.948 1439.31 541.802C1436.03 561.69 1482.72 704.647 1471.54 650.559C1459.71 607.685 1447.21 566.662 1447.87 521.915C1423.54 426.803 1393.29 329.217 1319.65 257.738C1290.08 229.155 1257.84 200.572 1236.81 165.145C1201.3 128.47 1207.22 170.117 1225.63 191.231ZM697.666 981.845C606.932 1015.42 578.66 1129.77 524.757 1200C487.266 1250.37 428.105 1280.82 382.738 1323.7C332.773 1362.25 306.459 1417.56 274.909 1469.15C305.161 1451.74 324.874 1390.21 357.744 1362.25C410.35 1313.76 472.812 1275.23 522.777 1224.26C567.484 1170.17 591.817 1104.29 635.204 1048.98C639.165 1027.22 710.823 987.441 697.666 981.845Z" fill="#506730"/>
<path d="M1238.13 1477.85C1218.39 1482.82 1170.41 1463.56 1175.67 1495.24C1175.67 1584.75 1175.67 1674.25 1175.67 1763.76C1142.14 1804.16 1061.26 1803.54 1007.99 1812.23C1000.12 1812.23 996.18 1809.13 995.52 1801.67C994.86 1717.77 995.52 1633.85 995.52 1550.57C985.641 1529.44 927.14 1546.83 902.806 1541.23C894.907 1541.23 892.289 1544.98 892.289 1551.8C892.289 1635.1 892.289 1719.02 892.289 1802.29C871.256 1835.24 763.427 1786.75 727.917 1777.43C685.168 1738.28 721.998 1556.77 710.161 1489.04C711.482 1459.81 648.36 1492.76 647.699 1469.76C650.977 1452.99 639.801 1269.63 654.938 1305.06C658.216 1321.22 660.857 1336.76 663.474 1352.91C664.795 1360.37 654.278 1392.08 670.713 1378.39C698.325 1352.28 748.29 1346.08 758.806 1306.91C760.127 1301.94 762.107 1296.97 769.346 1298.21C908.064 1341.11 1077.7 1341.73 1197.36 1253.47C1135.56 1250.97 1073.1 1253.47 1011.3 1252.22C994.2 1252.22 991.559 1249.74 991.559 1234.2C992.22 1227.98 985.641 1213.07 994.2 1211.82C1329.52 1236.68 1219.71 1150.91 1238.13 1477.85ZM837.066 1250.97C852.841 1250.97 868.616 1250.97 884.391 1250.37C875.854 1232.96 867.295 1210.57 841.664 1218.04C823.909 1246 814.052 1252.84 837.066 1250.97ZM766.705 1250.97C777.222 1249.74 791.699 1253.47 800.235 1249.12C785.121 1230.46 772.624 1214.32 745.672 1220.52C754.208 1228.61 755.528 1247.25 766.705 1250.97Z" fill="#FDD599"/>
</svg>
