<svg width="1113" height="1178" viewBox="0 0 1113 1178" fill="none" xmlns="http://www.w3.org/2000/svg">
<mask id="mask0_765_14" style="mask-type:luminance" maskUnits="userSpaceOnUse" x="287" y="292" width="489" height="354">
<path d="M287 292H775.664V645.251H287V292Z" fill="white"/>
</mask>
<g mask="url(#mask0_765_14)">
<path d="M343.903 640.863C352.014 640.863 359.676 637.49 365.485 631.319C371.222 625.205 374.387 617.021 374.387 608.397V603.989C374.387 558.855 390.915 516.424 420.968 484.457C450.966 452.489 490.802 434.877 533.138 434.877H652.288V453.735C652.288 467.189 659.535 478.688 671.172 483.824C682.772 488.98 695.541 486.22 704.443 476.791L766.814 410.288C771.958 404.845 774.764 397.581 774.764 389.858C774.764 382.192 771.958 374.928 766.814 369.505L704.443 303.04C695.541 293.553 682.772 290.813 671.172 295.949C667.359 297.616 663.978 300.012 661.136 303.04C655.453 309.173 652.288 317.28 652.288 326.038V341.83H517.096C455.75 341.83 398.055 367.377 354.532 413.718C311.063 460.04 287.125 521.579 287.125 586.875V608.397C287.125 617.021 290.29 625.205 296.081 631.319C301.819 637.49 309.498 640.863 317.663 640.863H343.903Z" fill="#427DB8"/>
</g>
<mask id="mask1_765_14" style="mask-type:luminance" maskUnits="userSpaceOnUse" x="361" y="532" width="489" height="354">
<path d="M361.295 532.408H849.365V885.659H361.295V532.408Z" fill="white"/>
</mask>
<g mask="url(#mask1_765_14)">
<path d="M468.41 878.279C472.223 876.611 475.604 874.216 478.446 871.188C484.201 865.112 487.312 856.948 487.312 848.189V832.397H622.504C683.832 832.397 741.527 806.889 785.05 760.509C828.537 714.187 852.475 652.706 852.475 587.334V565.888C852.475 557.206 849.291 549.023 843.5 542.909C837.763 536.719 830.084 533.346 821.99 533.346H795.679C787.586 533.346 779.906 536.719 774.169 542.909C768.36 549.023 765.195 557.206 765.195 565.888V570.238C765.195 615.372 748.667 657.804 718.668 689.771C688.616 721.796 648.797 739.409 606.443 739.409H487.312V720.473C487.312 707.096 480.064 695.54 468.41 690.403C456.828 685.306 444.041 687.989 435.138 697.495L372.767 763.94C367.624 769.383 364.836 776.646 364.836 784.37C364.836 792.036 367.678 799.299 372.767 804.723L435.138 871.245C444.041 880.674 456.828 883.415 468.41 878.279Z" fill="#76A458"/>
</g>
</svg>
