<svg width="816" height="823" viewBox="0 0 816 823" fill="none" xmlns="http://www.w3.org/2000/svg">
<mask id="mask0_761_596" style="mask-type:luminance" maskUnits="userSpaceOnUse" x="0" y="0" width="709" height="490">
<path d="M0 0H708.506V489.515H0V0Z" fill="white"/>
</mask>
<g mask="url(#mask0_761_596)">
<path d="M82.501 483.433C94.2612 483.433 105.37 478.759 113.792 470.207C122.11 461.735 126.7 450.395 126.7 438.444V432.336C126.7 369.792 150.663 310.993 194.236 266.694C237.73 222.396 295.488 197.989 356.871 197.989H529.623V224.122C529.623 242.765 540.132 258.7 557.003 265.818C573.822 272.962 592.335 269.137 605.243 256.071L695.674 163.915C703.132 156.373 707.199 146.307 707.199 135.604C707.199 124.981 703.132 114.916 695.674 107.4L605.243 15.2971C592.335 2.15099 573.822 -1.64679 557.003 5.47073C551.475 7.78126 546.572 11.101 542.452 15.2971C534.212 23.7957 529.623 35.0297 529.623 47.1666V69.0503H333.611C244.667 69.0503 161.015 104.452 97.9119 168.669C34.8866 232.859 0.179688 318.137 0.179688 408.619V438.444C0.179688 450.395 4.76903 461.735 13.1654 470.207C21.4836 478.759 32.618 483.433 44.4564 483.433H82.501Z" fill="#427DB8"/>
</g>
<mask id="mask1_761_596" style="mask-type:luminance" maskUnits="userSpaceOnUse" x="107" y="333" width="709" height="490">
<path d="M107.723 333.143H815.368V822.657H107.723V333.143Z" fill="white"/>
</mask>
<g mask="url(#mask1_761_596)">
<path d="M263.022 812.432C268.55 810.122 273.453 806.802 277.573 802.606C285.917 794.187 290.428 782.873 290.428 770.736V748.853H486.44C575.358 748.853 659.01 713.504 722.113 649.234C785.164 585.044 819.871 499.846 819.871 409.257V379.539C819.871 367.508 815.256 356.168 806.859 347.696C798.541 339.118 787.407 334.443 775.673 334.443H737.524C725.79 334.443 714.655 339.118 706.337 347.696C697.915 356.168 693.325 367.508 693.325 379.539V385.567C693.325 448.111 669.362 506.91 625.867 551.209C582.295 595.587 524.563 619.994 463.154 619.994H290.428V593.754C290.428 575.217 279.919 559.203 263.022 552.085C246.229 545.021 227.689 548.739 214.782 561.912L124.351 653.988C116.893 661.53 112.852 671.596 112.852 682.298C112.852 692.922 116.972 702.987 124.351 710.503L214.782 802.685C227.689 815.752 246.229 819.55 263.022 812.432Z" fill="#76A458"/>
</g>
</svg>
