<svg width="1448" height="1865" viewBox="0 0 1448 1865" fill="none" xmlns="http://www.w3.org/2000/svg">
<mask id="mask0_758_49" style="mask-type:luminance" maskUnits="userSpaceOnUse" x="0" y="1469" width="73" height="177">
<path d="M0 1469.93H72.5307V1645.08H0V1469.93Z" fill="white"/>
</mask>
<g mask="url(#mask0_758_49)">
<path d="M44.6617 1476.54C44.6617 1476.54 74.2533 1546.14 71.6498 1591.29C71.0631 1601.78 68.6063 1610.94 65.4528 1618.89C54.3422 1645.26 15.4734 1642.87 7.55294 1615.27C5.24281 1607.03 3.9594 1597.56 4.50944 1587.07C7.11292 1542.07 44.6617 1476.54 44.6617 1476.54Z" fill="#1EA6BC"/>
</g>
<path d="M80.7441 1734.51C80.7441 1738.35 81.4409 1742.08 82.8709 1745.65C84.301 1749.18 86.3544 1752.34 88.9946 1755.08C91.6347 1757.81 94.6782 1759.9 98.1251 1761.39C101.572 1762.83 105.165 1763.59 108.906 1763.59C112.646 1763.59 116.239 1762.83 119.686 1761.39C123.133 1759.9 126.177 1757.81 128.817 1755.08C131.457 1752.34 133.474 1749.18 134.904 1745.65C136.334 1742.08 137.067 1738.35 137.067 1734.51C137.067 1730.67 136.334 1726.95 134.904 1723.38C133.474 1719.84 131.457 1716.69 128.817 1713.95C126.177 1711.25 123.133 1709.12 119.686 1707.68C116.239 1706.2 112.646 1705.44 108.906 1705.44C105.165 1705.44 101.572 1706.2 98.1251 1707.68C94.6782 1709.12 91.6347 1711.25 88.9946 1713.95C86.3544 1716.69 84.301 1719.84 82.8709 1723.38C81.4409 1726.95 80.7441 1730.67 80.7441 1734.51Z" fill="#1EA6BC"/>
<path d="M128.083 1422.22C131.713 1362.85 181.362 1276.46 181.362 1276.46C181.362 1276.46 220.341 1368.55 216.748 1427.93C215.868 1441.88 212.678 1453.89 208.351 1464.38C193.646 1499.35 142.237 1496.04 132.006 1459.44C128.963 1448.6 127.239 1436.17 128.083 1422.22Z" fill="#1EA6BC"/>
<mask id="mask1_758_49" style="mask-type:luminance" maskUnits="userSpaceOnUse" x="0" y="1207" width="101" height="137">
<path d="M0 1207.2H100.692V1343.43H0V1207.2Z" fill="white"/>
</mask>
<g mask="url(#mask1_758_49)">
<path d="M50.4193 1333.13C29.6282 1348.75 -0.110101 1328.04 6.38025 1302.38C8.28703 1294.74 11.5872 1286.64 16.7942 1278.7C39.4554 1244.34 99.0787 1210.59 99.0787 1210.59C99.0787 1210.59 90.7182 1279.92 68.057 1314.24C62.7034 1322.33 56.653 1328.49 50.4193 1333.13Z" fill="#1EA6BC"/>
</g>
<path d="M517.579 1150.76C460.265 1192.15 422.02 1238.64 397.929 1273.57C369.474 1269.23 325.875 1259.2 278.389 1232.63C230.169 1205.8 197.681 1173.11 178.613 1150.76L736.894 863.973L370.354 487.334C336.142 452.098 336.142 394.932 370.354 359.697L694.578 26.4263C728.937 -8.80878 784.673 -8.80878 818.885 26.4263L1422.34 646.481C1456.55 681.716 1456.55 738.883 1422.34 774.118L1077.14 1128.83C1052.17 1154.48 1014.66 1162.27 981.877 1148.48C950.709 1135.59 919.504 1122.55 888.482 1109.48C767.072 1058.66 628.171 1071.85 520.475 1148.63C519.485 1149.27 518.605 1150 517.579 1150.76ZM869.855 160.677L822.369 111.91C797.104 85.9497 756.218 85.9497 731.1 111.91L493.487 356.086C480.8 369.009 474.566 386.113 474.566 403.028C474.566 419.98 480.8 437.085 493.487 450.008C499.134 455.709 505.625 460.195 512.555 463.501L869.855 160.677Z" fill="#1EA6BC"/>
<path d="M265.811 1647.36C267.131 1657.85 266.397 1667.31 264.674 1675.71C258.587 1703.91 219.901 1709.01 207.214 1683.35C203.327 1675.71 200.43 1666.7 199.11 1656.21C193.5 1611.36 218.471 1539.98 218.471 1539.98C218.471 1539.98 260.2 1602.66 265.811 1647.36Z" fill="#1EA6BC"/>
<mask id="mask2_758_49" style="mask-type:luminance" maskUnits="userSpaceOnUse" x="222" y="1771" width="95" height="94">
<path d="M222.725 1771.57H316.596V1865H222.725V1771.57Z" fill="white"/>
</mask>
<g mask="url(#mask2_758_49)">
<path d="M298.297 1785.67C314.761 1802.78 314.761 1830.22 298.297 1847.17C281.686 1864.09 254.991 1864.09 238.527 1847.17C221.916 1830.22 221.916 1802.78 238.527 1785.67C254.991 1768.72 281.722 1768.72 298.297 1785.67Z" fill="#1EA6BC"/>
</g>
<path d="M411.497 1710.49C412.634 1720.11 412.047 1728.81 410.471 1736.45C404.86 1762.41 369.328 1767.05 357.631 1743.48C354.037 1736.45 351.287 1728.05 350.151 1718.43C345.09 1677.35 368.045 1611.66 368.045 1611.66C368.045 1611.66 406.437 1669.25 411.497 1710.49Z" fill="#1EA6BC"/>
<path d="M368.739 1496.95C347.838 1441.42 357.775 1341.68 357.775 1341.68C357.775 1341.68 430.672 1408.42 451.61 1463.92C456.524 1476.99 458.54 1489.27 458.834 1500.67C459.86 1538.65 411.788 1557.84 387.513 1529.03C380.289 1520.48 373.689 1509.99 368.739 1496.95Z" fill="#1EA6BC"/>
<path d="M537.526 1642.26C548.49 1653.67 548.49 1671.99 537.526 1683.35C526.562 1694.6 508.631 1694.6 497.667 1683.35C486.556 1671.99 486.556 1653.67 497.667 1642.26C508.631 1631.01 526.562 1631.01 537.526 1642.26Z" fill="#1EA6BC"/>
<mask id="mask3_758_49" style="mask-type:luminance" maskUnits="userSpaceOnUse" x="0" y="1469" width="73" height="177">
<path d="M0 1469.93H72.5307V1645.08H0V1469.93Z" fill="white"/>
</mask>
<g mask="url(#mask3_758_49)">
<path d="M4.50944 1587.07C3.9594 1597.56 5.24281 1607.03 7.55294 1615.27C15.4734 1642.87 54.3422 1645.26 65.4528 1618.89C68.6063 1610.94 71.0631 1601.78 71.6498 1591.29C74.2533 1546.14 44.6617 1476.54 44.6617 1476.54C44.6617 1476.54 7.11292 1542.07 4.50944 1587.07Z" fill="#E7F2F1"/>
</g>
<path d="M80.7441 1734.51C80.7441 1738.35 81.4409 1742.08 82.8709 1745.65C84.301 1749.18 86.3544 1752.34 88.9946 1755.08C91.6347 1757.81 94.6782 1759.9 98.1251 1761.39C101.572 1762.83 105.165 1763.59 108.906 1763.59C112.646 1763.59 116.239 1762.83 119.686 1761.39C123.133 1759.9 126.177 1757.81 128.817 1755.08C131.457 1752.34 133.474 1749.18 134.904 1745.65C136.334 1742.08 137.067 1738.35 137.067 1734.51C137.067 1730.67 136.334 1726.95 134.904 1723.38C133.474 1719.84 131.457 1716.69 128.817 1713.95C126.177 1711.25 123.133 1709.12 119.686 1707.68C116.239 1706.2 112.646 1705.44 108.906 1705.44C105.165 1705.44 101.572 1706.2 98.1251 1707.68C94.6782 1709.12 91.6347 1711.25 88.9946 1713.95C86.3544 1716.69 84.301 1719.84 82.8709 1723.38C81.4409 1726.95 80.7441 1730.67 80.7441 1734.51Z" fill="#C3DDDA"/>
<path d="M128.083 1422.22C127.239 1436.17 128.963 1448.64 132.006 1459.44C142.237 1496.04 193.646 1499.35 208.351 1464.38C212.678 1453.89 215.868 1441.88 216.748 1427.93C220.341 1368.55 181.362 1276.46 181.362 1276.46C181.362 1276.46 131.713 1362.85 128.083 1422.22Z" fill="#C3DDDA"/>
<mask id="mask4_758_49" style="mask-type:luminance" maskUnits="userSpaceOnUse" x="0" y="1207" width="101" height="137">
<path d="M0 1207.2H100.692V1343.43H0V1207.2Z" fill="white"/>
</mask>
<g mask="url(#mask4_758_49)">
<path d="M6.38025 1302.38C-0.110101 1328.04 29.6282 1348.75 50.4193 1333.13C56.653 1328.49 62.7034 1322.33 68.057 1314.24C90.7182 1279.92 99.0787 1210.59 99.0787 1210.59C99.0787 1210.59 39.4554 1244.34 16.7942 1278.7C11.5872 1286.64 8.28703 1294.74 6.38025 1302.38Z" fill="#E7F2F1"/>
</g>
<path d="M218.471 1539.98C218.471 1539.98 193.5 1611.36 199.11 1656.21C200.43 1666.7 203.327 1675.71 207.214 1683.35C219.901 1709.01 258.587 1703.91 264.674 1675.71C266.397 1667.31 267.131 1657.89 265.811 1647.36C260.2 1602.66 218.471 1539.98 218.471 1539.98Z" fill="#E7F2F1"/>
<mask id="mask5_758_49" style="mask-type:luminance" maskUnits="userSpaceOnUse" x="222" y="1771" width="95" height="94">
<path d="M222.725 1771.57H316.596V1865H222.725V1771.57Z" fill="white"/>
</mask>
<g mask="url(#mask5_758_49)">
<path d="M238.527 1785.67C221.916 1802.78 221.916 1830.22 238.527 1847.17C254.991 1864.09 281.686 1864.09 298.297 1847.17C314.761 1830.22 314.761 1802.78 298.297 1785.67C281.686 1768.72 254.991 1768.72 238.527 1785.67Z" fill="#E7F2F1"/>
</g>
<path d="M368.045 1611.66C368.045 1611.66 345.09 1677.38 350.151 1718.47C351.287 1728.05 354.037 1736.45 357.631 1743.52C369.328 1767.05 404.86 1762.41 410.471 1736.45C412.047 1728.81 412.634 1720.11 411.497 1710.53C406.437 1669.29 368.045 1611.66 368.045 1611.66Z" fill="#C3DDDA"/>
<path d="M357.775 1341.68C357.775 1341.68 347.838 1441.42 368.739 1496.95C373.652 1509.99 380.289 1520.48 387.513 1529.03C411.788 1557.84 459.86 1538.65 458.834 1500.67C458.54 1489.27 456.524 1476.99 451.61 1463.92C430.672 1408.42 357.775 1341.68 357.775 1341.68Z" fill="#E7F2F1"/>
<path d="M497.667 1642.26C486.556 1653.67 486.556 1671.99 497.667 1683.35C508.631 1694.6 526.562 1694.6 537.526 1683.35C548.49 1671.99 548.49 1653.67 537.526 1642.26C526.562 1631.01 508.631 1631.01 497.667 1642.26Z" fill="#C3DDDA"/>
<path d="M869.854 160.678L512.555 463.502C524.949 469.356 539.103 470.99 552.964 467.873C567.264 464.566 583.289 460.195 600.596 454.342C644.635 411.01 693.441 366.159 746.831 321.155C795.49 280.067 843.013 242.855 888.629 209.14C889.032 191.58 882.688 174.019 869.854 160.678Z" fill="#1498B7"/>
<path d="M600.596 454.342C646.652 439.214 701.655 414.166 756.804 372.317C811.514 330.772 850.053 284.856 876.638 246.466C884.411 235.063 888.335 222.026 888.628 209.141C843.012 242.855 795.49 280.067 746.83 321.156C693.441 366.159 644.635 411.011 600.596 454.342Z" fill="#E7F2F1"/>
<path d="M278.389 1232.67C325.875 1259.2 369.474 1269.23 397.929 1273.61C422.02 1238.64 460.265 1192.15 517.578 1150.76C518.605 1150 519.485 1149.28 520.475 1148.67C628.171 1071.85 767.072 1058.66 888.482 1109.52C919.504 1122.55 950.709 1135.59 981.877 1148.52C1014.66 1162.31 1052.17 1154.52 1077.14 1128.86L1422.34 774.119C1456.55 738.884 1456.55 681.755 1422.34 646.482L1066.91 281.283C1251.1 473.271 1132.73 890.695 768.062 973.48C403.099 1056.11 278.389 1232.67 278.389 1232.67Z" fill="#1498B7"/>
</svg>
